<?xml version="1.0" encoding="utf-8"?>
<!-- Uploaded to: SVG Repo, www.svgrepo.com, Generator: SVG Repo Mixer Tools -->
<svg width="800px" height="800px" viewBox="0 0 1024 1024" class="icon"  version="1.1" xmlns="http://www.w3.org/2000/svg"><path d="M126.913658 891.829715l-3.510903 0.21604c-3.447422 0-6.210888-0.931736-6.923513-1.42832-4.318748-3.323532-4.690419-8.974355-4.690418-14.473643 0-54.50244 26.274945-99.382405 26.522725-99.830867 18.820036-22.439471 54.754316-41.848241 117.362855-64.008191 45.778937-16.196842 77.829619-32.378326 95.22236-48.091894 14.005727-12.53338 30.682772-37.844849 31.458876-67.799638l-1.33617-21.288624-2.607836-18.508775-4.595197-3.898955c-12.577407-10.713936-20.808421-27.655143-24.379734-50.375158l-1.987361-12.498568-12.641912-0.887709c-16.521414-1.132417-27.39098-11.677412-35.18582-34.146576-4.878814-14.117331-7.269586-27.034668-7.269585-39.4288 0-5.883245 1.583951-17.361 1.58395-17.513558 1.150847-8.090742 5.063113-18.137105 7.702689-19.860304 12.577407-5.422497 12.173997-14.969203 11.429632-18.82106l-2.452205-12.56512-1.491801-0.044028c-2.391796-12.393108-4.534788-24.767786-4.534788-35.110051 0-17.625162 2.455277-33.929512 7.331019-48.434895 42.856768-127.26997 148.853472-133.716352 169.661894-133.716352 4.566529 0 8.853536 0.219111 12.797542 0.638904l0.247781-4.782568 0.620474 4.919769 1.987362-10.96274 0.528324 10.825539c3.850833-0.375766 7.98221-0.575424 12.424849-0.575423 21.180092 0 128.917401 6.459693 168.482378 133.884269 4.595197 14.893436 6.926584 31.369799 6.926584 48.946838 0 10.96274-2.331387 23.91489-4.815333 36.741101l-2.763466 0.699313-1.179516 12.654199-0.12389 12.237477 14.409138 4.3638c1.023885 1.411938 4.315677 11.133729 5.342634 18.988977 0.03174 0.279521 1.615691 11.601645 1.615691 17.48489 0 12.40949-2.363127 25.327851-7.206105 39.504567-8.01395 22.875646-18.448366 33.138049-34.87763 34.193674l-12.826211 0.823204-1.895212 12.734062C636.869983 532.761323 624.972435 546.130193 616.402515 553.56872l-3.787352 3.291792-1.211256 4.859359-1.803062 11.785944 0.652215-0.560065c-1.055626 5.482906-1.52047 13.153855-2.139921 23.807382 0.776105 30.590622 16.985234 55.281616 30.651031 67.547762 17.329259 15.653159 49.351273 31.801878 95.127138 47.99872 17.26885 6.131025 31.833619 11.970243 45.219896 17.749053l22.203977 9.56616V383.955973c0-15.856912 13.108804-28.758891 29.194042-28.758891h51.618155c7.886989 0 15.248724 3.059369 20.776681 8.602684 5.403043 5.403043 8.385621 12.562049 8.35388 20.109108l0.12389 364.654711-0.311261 8.774697-60.157358 134.648088-722.103317-0.247781v7.251156l-1.896235-7.16003z" fill="#FFFFFF" /><path d="M927.158878 383.955973c0.060409-24.659254-20.187947-44.65983-45.032524-44.65983h-51.618155c-24.843554 0-45.096005 20.000576-45.096005 44.65983v331.501304c-13.693442-5.902699-28.57152-11.865807-46.21204-18.137105-54.598685-19.316621-79.010159-35.09367-89.816245-44.847201-12.237477-10.994481-24.783144-32.111092-25.403619-54.782984 0.12389-2.111252 1.303406-21.616267 1.303406-21.616267 0 0.12389 1.367911-9.44227 1.367911-9.442271s0.12389-0.807846 0.184299-1.055625c13.229622-11.490041 25.530581-28.946262 30.187211-60.621179 28.882781-1.863471 41.492953-23.790999 48.883357-44.911706 5.406115-15.773977 8.077431-30.495401 8.077432-44.65983 0-6.643992-1.739581-19.50092-1.739581-19.50092s-3.603052-28.758891-16.896156-32.301534c-5.403043-1.488729-0.683955-1.363815-0.868255-1.923881 3.291791-16.896156 7.018734-34.101525 7.018734-49.443422 0-19.256211-2.547427-37.145536-7.64228-53.665925-39.192282-126.214344-144.722095-149.570192-197.64468-144.41493 0.992145 0 1.987361 0.060409 2.919097 0.187371-0.868255-0.126962-2.050842-0.063481-3.042987-0.187371-0.871326 0.12389-1.987361 0.060409-2.858688 0.187371 0.931736-0.126962 1.863471-0.187371 2.795207-0.187371-52.111667-5.403043-156.648311 17.577039-199.19689 143.854864-5.406115 16.148719-8.137841 33.977635-8.13784 53.481626 0 15.402307 3.850833 33.042827 7.266514 50.435568-0.184299 0.560065 3.914314-0.436175-0.683955 1.55221-13.477403 5.714304-17.081479 32.301534-17.081479 32.301534s-1.739581 12.981842-1.739582 19.625834c0 14.28832 2.734798 29.009743 8.137841 44.65983 6.831363 19.627882 19.564401 42.73595 49.131137 44.78372 5.654919 35.777625 20.748012 52.30211 29.814517 60.0048 0.187371 1.303406 0.435151 3.352201 0.435151 3.3522l1.179516 7.890061c0 0.060409 1.303406 19.937095 1.303406 19.937095-0.683955 26.398835-16.708785 47.891212-26.211464 56.401747-10.869567 9.813941-35.281041 25.59099-89.879725 44.90761-66.336506 23.479738-103.233238 43.728094-123.418114 67.639912-0.871326 0.995217-1.615691 2.111252-2.299646 3.231382-1.179516 1.987361-28.758891 49.443422-28.758891 107.95335 0 5.590414 0 18.696146 10.993457 27.1432 5.155263 3.914314 14.037468 5.342634 20.995792 4.350488h0.060409c0.807846-0.12389 1.739581-0.12389 2.547427-0.311261-0.620475 0.187371-1.179516 0.311261-1.6761 0.311261h726.978034c0.343002 0.060409 0.560065 0.37167 0.931736 0.371671 1.307502 0 2.547427-0.436175 3.603052-1.119107 0.995217-0.560065 1.863471-1.303406 2.360056-2.236165l63.72867-142.674325a6.196554 6.196554 0 0 0 0.560066-2.111251v-3.479163l0.311261-0.24778-0.119795-372.187435z" fill="#27323A" /><path d="M824.10994 383.955973h64.412625V419.110052h-64.412625z" fill="#FFFFFF" /><path d="M824.10994 457.311213h64.411602v242.369015l-32.233958 29.502232-32.177644-29.502232zM327.074024 443.833811c-7.018734-19.627882-5.279153-44.475531-4.907483-46.523302 1.491801-7.95047 4.039228-12.857952 8.574016-17.021069 3.042987-1.303406 9.50268 0.560065 9.690051-3.352201-9.069576-34.225415-12.548739-69.755259-2.363128-99.881037 12.673653-37.577615 31.369799-62.733454 51.554674-79.813909 45.96426-41.369063 100.377622-35.964996 103.545523-35.593326 1.79999 0.24778 3.911242 0.24778 5.650823 0.063481 3.291791-0.37167 60.065209-5.650823 105.593294 37.269426 19.256211 17.081479 36.772841 41.677252 48.015102 78.074328 9.44227 30.374582 6.706449 65.655623-2.423536 99.881037 0.311261 3.911242 6.770954 2.047771 9.753531 3.352201 4.534788 4.163118 7.142624 9.069576 8.570944 17.021069 2.919097 16.148719 0.187371 31.801878-4.844001 46.523302-7.76617 22.300222-16.337114 31.554098-42.73595 23.851408 0 58.509927-29.442846 68.076087-29.442846 68.076088l-10.806086 17.329259c0-0.060409-0.871326 5.466524-0.871326 5.466524l-1.8604 13.293103c0 0.12389-1.491801 25.403619-1.491801 25.403619 0.12389 5.031372 0.560065 9.87435 1.239925 14.597533-9.066505 13.789688-31.054442 40.125042-82.921401 80.685235-50.931128-39.816853-73.10746-65.903403-82.424816-79.87739 0.747436-5.403043 1.303406-10.934071 1.303406-16.648375 0.12389-0.43208 0.187371-1.42832 0.187371-2.855616 0-6.458669-0.995217-21.243573-0.995216-21.243573l-1.73651-12.110516-0.871326-5.282224c0-8.447054-3.975747-14.410162-8.010879-18.756555 0 0-32.301534-10.374006-32.301534-68.076088-26.333307 7.701665-34.718927-1.680196-42.670421-23.852432z" fill="#F4CE73" /><path d="M620.813413 693.220535c-0.623546 26.147983-7.51839 50.559457-17.827891 72.547395-25.59099-34.349305-54.03862-50.622938-75.529973-59.006511 29.130561-23.667109 48.451277-42.672469 61.433119-57.829043 6.642968 13.913578 15.093094 25.4671 23.664038 34.161933 2.730702 3.727966 5.4655 7.083239 8.260707 10.126226zM461.738493 706.762443c-21.616267 8.383573-50.002464 24.719663-75.590382 59.069992-10.374006-21.987937-17.208441-46.399411-17.889324-72.550467 2.420465-2.671317 4.783592-5.590414 7.203033-8.694834 9.069576-8.882205 18.200586-20.808421 25.21932-35.15715 12.981842 15.09207 32.174572 33.91313 61.057353 57.332459z" fill="#FFFFFF" /><path d="M145.454173 859.934663c3.975747-34.225415 16.273633-60.065209 19.132321-65.283952 18.881469-21.240501 66.832067-40.061561 101.741437-52.362519 28.635001-10.123154 51.986753-20.496136 71.058666-31.055466 7.018734 63.044715 42.732878 116.46286 82.113555 148.700913H145.454173z" fill="#79CCBF" /><path d="M504.846113 859.871182c-0.063481 0.063481-0.12389 0.063481-0.12389 0.063481h-20.248356c-0.063481 0-0.063481 0-0.12389-0.063481-25.40669-5.899627-56.586046-29.566737-80.437455-63.357 35.838034-56.08639 81.4296-65.900331 90.62409-67.207832 9.254899 1.307502 54.846465 11.121442 90.684499 67.207832-23.852433 33.790263-55.031788 57.457373-80.374998 63.357z" fill="#FFFFFF" /><path d="M651.743965 711.046379c19.132321 10.561377 42.672469 20.995792 71.555249 31.242837 20.528901 7.269586 45.499416 16.832675 66.523878 27.827155l40.777257 89.819316H569.630409c39.380677-32.302558 75.158302-85.781113 82.113556-148.889308z" fill="#79CCBF" /><path d="M904.486985 757.3219c-1.491801 2.795207-19.752796 52.238629-35.717215 88.324444-3.415681-5.215672-7.575728-8.694834-12.234406-8.694835s-8.821796 3.415681-12.173996 8.634425c-16.148719-36.025405-34.721999-85.344937-36.337691-88.264034v-1.739581c5.899627-4.719087 12.545667-9.999264 15.777049-12.609148h0.496585l32.050682 30.438063 31.990273-30.498472h0.12389c3.291791 2.607836 10.062745 7.95047 16.024829 12.734062v1.675076z" fill="#FFFFFF" /></svg>