<?xml version="1.0" encoding="iso-8859-1"?>
<!-- Uploaded to: SVG Repo, www.svgrepo.com, Generator: SVG Repo Mixer Tools -->
<svg height="800px" width="800px" version="1.1" id="Layer_1" xmlns="http://www.w3.org/2000/svg" xmlns:xlink="http://www.w3.org/1999/xlink" 
	 viewBox="0 0 512 512" xml:space="preserve">
<circle style="fill:#FFC850;" cx="256" cy="256" r="168.086"/>
<circle style="fill:#FFDC64;" cx="256" cy="256" r="141.546"/>
<circle style="fill:#FFF082;" cx="326.773" cy="194.073" r="26.54"/>
<path style="fill:#FFC850;" d="M297.381,325.051c-53.363-8.945-95.618-52.757-102.326-106.447
	c-2.404-19.243-0.303-37.686,5.314-54.532c2.771-8.313-6.763-15.31-14.006-10.379c-37.124,25.27-59.812,70.13-53.018,119.778
	c7.523,54.978,52.483,98.975,107.59,105.49c41.637,4.922,79.693-10.875,105.402-38.388c6.011-6.433,0.701-16.999-7.98-15.524
	C325.305,327.266,311.555,327.427,297.381,325.051z"/>
<path d="M256,432.38c97.257,0,176.38-79.123,176.38-176.38S353.257,79.62,256,79.62S79.62,158.743,79.62,256
	S158.743,432.38,256,432.38z M256,96.207c88.11,0,159.793,71.682,159.793,159.793S344.11,415.793,256,415.793
	S96.207,344.11,96.207,256S167.89,96.207,256,96.207z"/>
<path d="M202.367,300.786c0-4.58-3.713-8.294-8.294-8.294s-8.294,3.713-8.294,8.294c0,22.456,26.601,40.384,61.927,42.832v9.695
	c0,4.58,3.713,8.294,8.294,8.294s8.294-3.713,8.294-8.294v-9.695c35.326-2.448,61.927-20.376,61.927-42.832
	c0-30.084-28.605-41.823-61.927-51.118v-64.661c27.098,2.178,45.339,14.785,45.339,26.207c0,4.58,3.713,8.294,8.294,8.294
	s8.294-3.713,8.294-8.294c0-22.456-26.601-40.384-61.927-42.832v-9.695c0-4.58-3.713-8.294-8.294-8.294s-8.294,3.713-8.294,8.294
	v9.695c-35.326,2.448-61.927,20.376-61.927,42.832c0,30.084,28.605,41.823,61.927,51.118v64.661
	C220.608,324.815,202.367,312.208,202.367,300.786z M309.633,300.786c0,11.422-18.241,24.029-45.339,26.207v-60.05
	C297.932,276.883,309.633,285.909,309.633,300.786z M202.367,211.214c0-11.422,18.241-24.029,45.339-26.207v60.05
	C214.068,235.117,202.367,226.091,202.367,211.214z"/>
<path d="M437.019,74.981C388.668,26.628,324.38,0,256,0C182.385,0,113.65,30.975,65.041,85.5l4.543-31.8
	c0.647-4.535-2.504-8.735-7.038-9.383c-4.536-0.642-8.735,2.504-9.383,7.038l-8.847,61.927c-0.406,2.845,0.69,5.698,2.896,7.541
	c1.514,1.263,3.4,1.926,5.316,1.926c0.878,0,1.764-0.139,2.622-0.426l53.08-17.693c4.346-1.449,6.694-6.145,5.246-10.491
	c-1.45-4.346-6.145-6.696-10.491-5.246l-26.668,8.89C121.837,46.021,186.602,16.587,256,16.587
	c63.949,0,124.071,24.903,169.291,70.122c45.219,45.22,70.122,105.342,70.122,169.291s-24.903,124.071-70.122,169.291
	c-45.22,45.219-105.341,70.122-169.291,70.122c-4.58,0-8.294,3.713-8.294,8.294S251.42,512,256,512
	c68.38,0,132.668-26.628,181.019-74.981S512,324.38,512,256S485.372,123.332,437.019,74.981z"/>
<path d="M221.789,492.987c-2.82-0.404-5.66-0.861-8.441-1.361c-4.51-0.813-8.82,2.186-9.631,6.695
	c-0.811,4.508,2.186,8.82,6.695,9.631c2.976,0.535,6.014,1.025,9.028,1.456c0.398,0.057,0.794,0.085,1.185,0.085
	c4.06,0,7.608-2.985,8.2-7.119C229.472,497.838,226.323,493.637,221.789,492.987z"/>
<path d="M181.254,483.516c-5.221-1.714-10.451-3.636-15.546-5.712c-4.24-1.726-9.081,0.309-10.811,4.552
	c-1.728,4.242,0.31,9.082,4.552,10.811c5.451,2.22,11.046,4.276,16.632,6.11c0.859,0.282,1.731,0.416,2.589,0.416
	c3.486,0,6.731-2.216,7.879-5.709C187.976,489.63,185.606,484.945,181.254,483.516z"/>
<path d="M22.092,307.29c-1.171-5.368-2.169-10.848-2.966-16.288c-0.665-4.533-4.873-7.665-9.407-7.004
	c-4.533,0.663-7.669,4.876-7.004,9.407c0.853,5.818,1.919,11.679,3.172,17.42c0.847,3.88,4.281,6.528,8.095,6.528
	c0.586,0,1.181-0.062,1.776-0.192C20.232,316.184,23.069,311.765,22.092,307.29z"/>
<path d="M11.514,215.091c0.552,0.111,1.1,0.164,1.642,0.164c3.869,0,7.332-2.723,8.122-6.662c1.083-5.392,2.37-10.814,3.824-16.113
	c1.212-4.417-1.386-8.98-5.803-10.192c-4.413-1.212-8.98,1.387-10.192,5.805c-1.556,5.667-2.932,11.466-4.09,17.234
	C4.114,209.817,7.023,214.19,11.514,215.091z"/>
<path d="M37.658,354.358c-2.26-5.008-4.372-10.16-6.278-15.312c-1.589-4.296-6.361-6.491-10.656-4.901
	c-4.296,1.589-6.49,6.36-4.901,10.656c2.038,5.51,4.297,11.021,6.715,16.38c1.385,3.069,4.403,4.884,7.565,4.884
	c1.14,0,2.299-0.237,3.406-0.736C37.685,363.445,39.541,358.533,37.658,354.358z"/>
<path d="M8.368,266.354c4.58-0.036,8.264-3.779,8.228-8.359c-0.006-0.667-0.009-1.334-0.009-1.995c0-4.85,0.147-9.753,0.436-14.575
	c0.275-4.573-3.209-8.502-7.782-8.776c-4.578-0.278-8.502,3.209-8.776,7.782C0.157,245.582,0,250.82,0,256.007
	c0,0.707,0.003,1.413,0.009,2.119c0.036,4.558,3.742,8.228,8.293,8.228C8.322,266.354,8.346,266.354,8.368,266.354z"/>
<path d="M135.995,463.212c-4.75-2.757-9.47-5.719-14.03-8.805c-3.794-2.567-8.95-1.574-11.517,2.219
	c-2.568,3.794-1.574,8.949,2.219,11.517c4.875,3.3,9.922,6.467,15.001,9.415c1.31,0.761,2.741,1.122,4.156,1.122
	c2.86,0,5.642-1.481,7.181-4.132C141.305,470.588,139.957,465.512,135.995,463.212z"/>
<path d="M53.324,383.502c-2.442-3.874-7.563-5.037-11.439-2.592c-3.875,2.443-5.035,7.564-2.592,11.439
	c3.135,4.973,6.483,9.898,9.952,14.641c1.624,2.22,4.146,3.397,6.7,3.397c1.7,0,3.414-0.521,4.89-1.6
	c3.697-2.705,4.502-7.893,1.797-11.59C59.389,392.76,56.257,388.154,53.324,383.502z"/>
<path d="M95.894,434.005c-4.087-3.678-8.099-7.547-11.924-11.497c-3.186-3.291-8.435-3.376-11.727-0.189
	c-3.291,3.186-3.376,8.436-0.189,11.727c4.088,4.223,8.376,8.358,12.744,12.289c1.586,1.427,3.57,2.129,5.546,2.129
	c2.269,0,4.529-0.926,6.167-2.745C99.575,442.313,99.298,437.069,95.894,434.005z"/>
<path d="M25.194,165.504c1.072,0.462,2.187,0.682,3.284,0.682c3.209,0,6.266-1.874,7.618-5.007c1.124-2.602,2.31-5.221,3.528-7.783
	c1.965-4.138,0.205-9.084-3.932-11.051c-4.139-1.965-9.086-0.203-11.051,3.932c-1.302,2.74-2.571,5.54-3.773,8.324
	C19.052,158.806,20.989,163.687,25.194,165.504z"/>
</svg>